<svg width="14" height="14" viewBox="0 0 14 14" fill="none" xmlns="http://www.w3.org/2000/svg">
<g id="behance" clip-path="url(#clip0_9505_1007)">
<g id="Group">
<g id="Group_2">
<g id="Group_3">
<path id="Vector" d="M5.70577 6.51895C5.99358 6.37419 6.21116 6.21295 6.36026 6.03871C6.62553 5.7249 6.75643 5.3088 6.75643 4.79301C6.75643 4.29108 6.62553 3.86198 6.36373 3.50223C5.92683 2.91622 5.18738 2.61628 4.14193 2.60068H0V11.0553H3.86193C4.2971 11.0553 4.7002 11.018 5.07295 10.9418C5.44571 10.8646 5.76819 10.7233 6.04125 10.517C6.28398 10.3375 6.48683 10.1148 6.64807 9.85209C6.90293 9.45506 7.03036 9.00515 7.03036 8.5041C7.03036 8.01865 6.91853 7.60515 6.69661 7.26533C6.47209 6.92552 6.14268 6.67673 5.70577 6.51895ZM1.70861 4.06916H3.57413C3.98416 4.06916 4.32224 4.11337 4.5875 4.20093C4.89438 4.32836 5.04782 4.58756 5.04782 4.98285C5.04782 5.3374 4.93079 5.58533 4.69933 5.7249C4.46614 5.86446 4.1636 5.93468 3.79258 5.93468H1.70861V4.06916ZM4.65859 9.43946C4.45227 9.53915 4.16187 9.58856 3.78998 9.58856H1.70861V7.33382H3.81859C4.18614 7.33642 4.47221 7.38496 4.67679 7.47598C5.04088 7.64069 5.22206 7.94236 5.22206 8.3836C5.22206 8.90373 5.03481 9.25395 4.65859 9.43946Z" fill="white"/>
<path id="Vector_2" d="M12.5357 2.99496H8.86279V4.04735H12.5357V2.99496Z" fill="white"/>
<path id="Vector_3" d="M13.8118 7.14842C13.7355 6.65863 13.5673 6.22779 13.3055 5.8559C13.0186 5.4346 12.6545 5.126 12.2115 4.93095C11.7703 4.73504 11.2736 4.63708 10.7205 4.63795C9.79207 4.63795 9.03789 4.92835 8.45449 5.50482C7.87281 6.08303 7.58154 6.91436 7.58154 7.99795C7.58154 9.1535 7.90315 9.9883 8.54984 10.5006C9.19393 11.0138 9.93771 11.2695 10.782 11.2695C11.8041 11.2695 12.599 10.9653 13.1668 10.3585C13.53 9.97529 13.7355 9.5982 13.7806 9.22805H12.0884C11.9905 9.41096 11.8769 9.55399 11.7469 9.65802C11.5111 9.84873 11.2042 9.94409 10.828 9.94409C10.47 9.94409 10.1666 9.8652 9.91344 9.7083C9.4956 9.4569 9.27715 9.01653 9.24941 8.38978H13.8673C13.8742 7.84972 13.8568 7.43448 13.8118 7.14842ZM9.29102 7.31052C9.3517 6.90396 9.49907 6.58148 9.73313 6.34309C9.96718 6.10556 10.2983 5.98594 10.7222 5.98507C11.1132 5.98507 11.44 6.0969 11.7061 6.32142C11.9688 6.54767 12.117 6.87622 12.1474 7.31052H9.29102Z" fill="white"/>
</g>
</g>
</g>
</g>
<defs>
<clipPath id="clip0_9505_1007">
<rect width="13.8689" height="13.8689" fill="white"/>
</clipPath>
</defs>
</svg>
