<svg width="19" height="19" viewBox="0 0 19 19" fill="none" xmlns="http://www.w3.org/2000/svg">
<g id="viber (1)" clip-path="url(#clip0_9505_984)">
<path id="Vector" d="M18.331 10.9987C18.8978 6.2273 18.0586 3.21501 16.545 1.85255L16.5458 1.85176C14.1027 -0.47495 5.85194 -0.819325 2.92911 1.95626C1.61652 3.31397 1.15419 5.30659 1.10352 7.77342C1.05286 10.241 0.992691 14.8636 5.30015 16.1176H5.30411L5.30015 18.0326C5.30015 18.0326 5.27086 18.8085 5.76644 18.9644C6.33327 19.1481 6.58977 18.7879 8.35282 16.682C11.301 16.9378 13.5651 16.3519 13.8224 16.2664C14.4178 16.0669 17.7863 15.6212 18.331 10.9987ZM8.64336 15.3346C8.64336 15.3346 6.7774 17.6613 6.19711 18.2654C6.00711 18.4617 5.7989 18.4435 5.80207 18.054C5.80207 17.7983 5.81632 14.8747 5.81632 14.8747C2.16436 13.8281 2.37969 9.89192 2.41927 7.8328C2.45886 5.77288 2.83569 4.08584 3.94719 2.9498C6.5114 0.545508 13.7449 1.08305 15.5879 2.81522C17.8409 4.81259 17.039 10.4556 17.0437 10.648C16.5806 14.5065 13.8509 14.7512 13.349 14.9182C13.1345 14.9895 11.1434 15.5017 8.64336 15.3346Z" fill="white"/>
<path id="Vector_2" d="M9.67586 3.40164C9.37107 3.40164 9.37107 3.87664 9.67586 3.8806C12.0406 3.89881 13.9881 5.54706 14.0094 8.57043C14.0094 8.88948 14.4765 8.88552 14.4726 8.56648H14.4718C14.4464 5.30877 12.32 3.41985 9.67586 3.40164Z" fill="white"/>
<path id="Vector_3" d="M12.7863 8.06955C12.7792 8.38463 13.2455 8.39967 13.2495 8.08063C13.2882 6.28434 12.1807 4.80471 10.0994 4.64876C9.79461 4.62659 9.76295 5.10555 10.0669 5.12771C11.872 5.26467 12.8227 6.49651 12.7863 8.06955Z" fill="white"/>
<path id="Vector_4" d="M12.2873 10.1128C11.8963 9.88634 11.4981 10.0273 11.3334 10.2497L10.989 10.6954C10.8141 10.9218 10.4871 10.8918 10.4871 10.8918C8.10101 10.2608 7.46293 7.76389 7.46293 7.76389C7.46293 7.76389 7.43364 7.42584 7.65214 7.24455L8.0828 6.8883C8.29814 6.7173 8.4343 6.30564 8.21501 5.90109C7.62918 4.84264 7.23572 4.47768 7.03543 4.19743C6.82484 3.9338 6.50818 3.87443 6.17884 4.05255H6.17172C5.48693 4.45314 4.73722 5.20284 4.97709 5.97472C5.38638 6.78855 6.13847 9.38284 8.53564 11.343C9.66218 12.2701 11.445 13.2201 12.2018 13.4393L12.209 13.4504C12.9547 13.699 13.6799 12.92 14.067 12.2146V12.2091C14.2388 11.8679 14.1818 11.5449 13.9308 11.3335C13.4859 10.8997 12.8146 10.4207 12.2873 10.1128Z" fill="white"/>
<path id="Vector_5" d="M10.4256 6.41562C11.1864 6.45996 11.5553 6.85737 11.5949 7.67358C11.6091 7.99262 12.0722 7.97046 12.058 7.65142C12.0073 6.58583 11.4516 5.99208 10.4509 5.93666C10.1461 5.91846 10.1176 6.39741 10.4256 6.41562Z" fill="white"/>
</g>
<defs>
<clipPath id="clip0_9505_984">
<rect width="19" height="19" fill="white"/>
</clipPath>
</defs>
</svg>
